<?xml version="1.0" encoding="UTF-8"?>
<svg version="1.1" xmlns="http://www.w3.org/2000/svg" width="1081" height="1081">
<path d="M0 0 C1.24170959 -0.00067474 2.48341919 -0.00134949 3.76275635 -0.00204468 C24.42431884 0.01572721 44.80399923 0.71613583 65.3125 3.25 C66.02329712 3.33721313 66.73409424 3.42442627 67.46643066 3.51428223 C118.88382441 9.89454276 169.95120111 23.0552975 217.3125 44.25 C218.32860352 44.69778809 219.34470703 45.14557617 220.39160156 45.60693359 C264.41926178 65.06431892 306.51958471 90.0835875 343.3125 121.25 C344.37855475 122.14234718 345.44498115 123.03425048 346.51171875 123.92578125 C352.36173427 128.82935788 358.13141319 133.8054494 363.77441406 138.94750977 C365.36740426 140.39263198 366.96718033 141.83034581 368.57666016 143.25708008 C374.60828188 148.61145161 380.39193013 154.1734778 386.08178711 159.88891602 C387.50587492 161.31839717 388.93528044 162.74240511 390.36523438 164.16601562 C395.55881184 169.36683152 400.53113942 174.67053183 405.3125 180.25 C406.7257355 181.7948126 408.14190409 183.33695325 409.5625 184.875 C414.11052765 189.91553826 418.27942095 195.19878466 422.43359375 200.5625 C424.33026232 203.00781307 426.25797275 205.42151105 428.22265625 207.8125 C436.21284056 217.55624016 443.34028753 227.75935425 450.3125 238.25 C450.83956543 239.0347168 451.36663086 239.81943359 451.90966797 240.62792969 C502.23942532 315.63460409 532.18419938 402.54169612 532.0078125 648.0390625 C523.20616713 692.19311856 508.47663822 734.57394445 489.3125 775.25 C488.65967041 776.64049561 488.65967041 776.64049561 487.99365234 778.05908203 C481.26379684 792.26833302 473.3740649 805.76306077 465.3125 819.25 C464.36314818 820.85669221 463.41391991 822.46345744 462.46484375 824.0703125 C448.28705021 847.87688876 431.54799296 870.40065055 413.3125 891.25 C412.68214844 891.97960937 412.05179688 892.70921875 411.40234375 893.4609375 C409.71821506 895.40209722 408.01960178 897.32902442 406.3125 899.25 C405.67441406 899.96929688 405.03632812 900.68859375 404.37890625 901.4296875 C399.70956114 906.65592698 394.9625703 911.8080176 390.1875 916.9375 C389.32692993 917.86381226 389.32692993 917.86381226 388.44897461 918.80883789 C382.7889699 924.87041066 377.0221755 930.69894201 370.734375 936.109375 C368.21669897 938.33467575 365.76575608 940.61983315 363.31665039 942.91992188 C356.8575322 948.98234379 350.26559876 954.75309806 343.3125 960.25 C342.25883138 961.09600157 341.20545883 961.94237197 340.15234375 962.7890625 C271.47639792 1017.70377899 190.52102419 1055.03637938 40.3125 1080.25 C39.56500488 1080.30784668 38.81750977 1080.36569336 38.04736328 1080.42529297 C-53.57231644 1087.27897378 -145.85644381 1068.53293334 -270.6875 1008.25 C-271.55745605 1007.7446875 -272.42741211 1007.239375 -273.32373047 1006.71875 C-298.56535973 992.03549208 -322.29659351 974.98153222 -344.6875 956.25 C-345.58178711 955.50435791 -345.58178711 955.50435791 -346.49414062 954.74365234 C-360.37929412 943.1280402 -373.37453061 930.65056281 -386.1875 917.875 C-386.70632751 917.35885132 -387.22515503 916.84270264 -387.75970459 916.31091309 C-393.62211574 910.47149542 -399.33428554 904.56630893 -404.6875 898.25 C-405.66032664 897.1318269 -406.6342526 896.01460911 -407.609375 894.8984375 C-465.01174186 828.63644478 -505.64159053 748.48688641 -537.6875 585.25 C-537.7920752 584.14221191 -537.89665039 583.03442383 -538.00439453 581.89306641 C-539.07034152 568.62688892 -538.93136535 555.29980641 -538.9375 542 C-538.93817474 540.68564972 -538.93884949 539.37129944 -538.93954468 538.01712036 C-538.93181577 517.26609399 -538.31418732 496.83717758 -535.6875 476.25 C-535.5566803 475.20277771 -535.5566803 475.20277771 -535.42321777 474.13439941 C-527.65721593 412.18423207 -509.64772873 353.02848233 -481.6875 297.25 C-481.17074707 296.21391602 -480.65399414 295.17783203 -480.12158203 294.11035156 C-463.04762071 260.04651121 -442.22972796 226.98445971 -417.1953125 198.15625 C-414.8167427 195.39977658 -412.52719364 192.59037057 -410.25 189.75 C-405.50984515 183.93406532 -400.44427341 178.46172413 -395.31298828 172.99316406 C-393.6527063 171.21268744 -392.01042645 169.41695738 -390.37109375 167.6171875 C-382.46720659 158.97787056 -374.18333277 150.87248889 -365.55224609 142.96191406 C-363.82497624 141.37620888 -362.10790702 139.78037566 -360.39453125 138.1796875 C-354.03780622 132.25996202 -347.48518186 126.65682825 -340.6875 121.25 C-340.18057617 120.84346191 -339.67365234 120.43692383 -339.15136719 120.01806641 C-306.97442703 94.22731407 -272.51032089 72.76145692 -235.6875 54.25 C-234.34534424 53.5679248 -234.34534424 53.5679248 -232.97607422 52.87207031 C-173.57166124 22.81757244 -107.66860158 7.24495431 -41.6875 1.25 C-40.55127197 1.1454248 -39.41504395 1.04084961 -38.24438477 0.93310547 C-25.52119049 -0.07651418 -12.75533821 0.00623966 0 0 Z " fill="#FEFEFE" transform="translate(538.6875,-0.24999999999999997)"/>
<path d="M0 0 C92.3175 -3.96 92.3175 -3.96 186.5 -8 C205.64322266 -9.1653125 224.78644531 -10.330625 244.50976562 -11.53125 C273.24534823 -12.52400871 273.24534823 -12.52400871 285.55021858 -12.50717163 C286.50717133 -12.50600719 287.46412407 -12.50484276 288.45007539 -12.50364304 C289.42561301 -12.50244083 290.40115063 -12.50123863 291.40625 -12.5 C292.41484251 -12.50198017 293.42343502 -12.50396034 294.46259093 -12.50600052 C357.50233888 -12.59518039 400.72353211 -0.67094101 446.38872939 44.14437389 C472.27857018 69.9869163 495.54370405 98.4110339 517 128 C513.09147949 132.68149853 509.02704471 137.10895112 504.6910553 141.39555359 C504.08494099 141.9989945 503.47882667 142.6024354 502.85434526 143.2241624 C500.84155597 145.22696495 498.8251833 147.22611997 496.80883789 149.2253418 C495.35781865 150.66788597 493.90706049 152.11069279 492.45654297 153.55374146 C489.34267051 156.65094525 486.22743087 159.74676506 483.11125374 162.84165001 C478.18766833 167.73255945 473.27008892 172.629477 468.35386658 177.52778625 C467.10814718 178.76887595 467.10814718 178.76887595 465.83726174 180.03503817 C464.13986683 181.726126 462.44248057 183.41722251 460.74510276 185.10832751 C449.3045343 196.50589013 437.8594713 207.89888122 426.40014648 219.27758789 C418.66075249 226.96262682 410.93018053 234.6564191 403.2097339 242.36049396 C399.12468017 246.43615152 395.03511386 250.50704854 390.93467903 254.56723595 C387.08514933 258.37908283 383.24724709 262.20224835 379.41814423 266.03461075 C378.00789016 267.44188078 376.59331068 268.84483086 375.17423058 270.2432003 C373.24450611 272.14599158 371.33061705 274.06339093 369.4200592 275.98539734 C368.84926968 276.54094053 368.27848016 277.09648373 367.69039398 277.66886157 C365.97049904 279.36089928 365.97049904 279.36089928 364 282 C364.30053373 285.39971621 365.70989162 287.08317129 368.07473087 289.44108105 C368.73508369 290.10679031 369.3954365 290.77249956 370.0758 291.45838183 C370.80827639 292.18143757 371.54075277 292.90449332 372.29542542 293.64945984 C373.45439415 294.81121513 373.45439415 294.81121513 374.63677639 295.99644023 C377.23848753 298.60075982 379.85079671 301.19418514 382.46313477 303.7878418 C384.32597831 305.64820318 386.18815548 307.50923203 388.04971313 309.37088013 C392.06424118 313.38356956 396.08417317 317.3907787 400.10775948 321.39438438 C405.92569791 327.18353444 411.73487582 332.98141082 417.54184543 338.78156099 C426.96389372 348.19216189 436.39225758 357.59640809 445.82495117 366.99633789 C454.98732574 376.12692807 464.14796946 385.25924639 473.30541992 394.39477539 C473.86969936 394.95770126 474.4339788 395.52062712 475.01535762 396.10061135 C481.17071146 402.24133567 487.32536819 408.38275801 493.47919369 414.52501392 C494.01942692 415.06422877 494.55966015 415.60344362 495.11626409 416.15899831 C497.27534666 418.31402967 499.43442171 420.46906855 501.59340727 422.6241971 C507.92430707 428.94375168 514.25739269 435.26109713 520.59439182 441.57453582 C525.03420175 445.9979514 529.47171998 450.42365888 533.90842056 454.85019302 C535.73456259 456.67124273 537.56157917 458.49141589 539.38950539 460.31067467 C541.87244826 462.78202766 544.35237558 465.25636688 546.83155823 467.73149109 C547.56626534 468.461239 548.30097244 469.1909869 549.0579434 469.94284838 C549.71568847 470.6007344 550.37343353 471.25862042 551.05111027 471.93644238 C551.62470533 472.5080315 552.1983004 473.07962063 552.78927714 473.66853064 C554 475 554 475 554 476 C526.82188462 481.95827753 499.55101843 485.67987146 471.8125 487.8125 C470.77625803 487.89458332 469.74001606 487.97666664 468.67237282 488.06123734 C413.71443814 492.29391574 368.84338342 483.75637895 326.61218423 447.59050835 C303.48046541 427.54737247 282.12682063 405.62953145 261.33125585 383.20505613 C259.7454985 381.49514606 258.15803295 379.78683445 256.57037401 378.07869005 C229.10897605 348.50968984 202.62764568 318.17388362 177 287 C178.94646606 282.75098298 181.87773901 279.84991672 185.16287231 276.59661865 C185.80161533 275.95616678 186.44035835 275.31571492 187.09845722 274.65585542 C189.24336563 272.50764862 191.39535196 270.36667547 193.54736328 268.22558594 C195.08501406 266.6884992 196.62222478 265.15097214 198.1590271 263.61303711 C202.33612653 259.43536288 206.51937228 255.26389217 210.70372629 251.09348583 C215.07418823 246.73550995 219.43900283 242.37188547 223.80441284 238.0088501 C232.07351655 229.74596741 240.34770617 221.48819703 248.62372291 213.23223901 C259.80559991 202.07687723 270.97962852 190.91366002 282.15409279 179.75087357 C299.76297463 162.1608087 317.38234093 144.581284 335 127 C265.7 126.67 196.4 126.34 125 126 C127.5575 154.1325 130.115 182.265 132.75 211.25 C134.27174787 245.36413888 134.27174787 245.36413888 133.23046875 262.3515625 C133.17152805 263.37411274 133.11258735 264.39666299 133.05186057 265.4501996 C129.75433098 318.83892234 101.69115294 351.19162684 63.0625 385.625 C62.32272352 386.28683352 61.58294704 386.94866703 60.8207531 387.63055611 C6.65895485 436 6.65895485 436 0 436 C0 292.12 0 148.24 0 0 Z " fill="#000000" transform="translate(295,302)"/>
<path d="M0 0 C4.40855145 3.77875838 8.6284841 7.48339339 12.70115662 11.5809021 C13.22983229 12.10872335 13.75850797 12.6365446 14.30320412 13.18036044 C16.05273963 14.92826469 17.79870547 16.67968935 19.54467773 18.43115234 C20.80656299 19.69332001 22.06866916 20.95526686 23.33097839 22.2170105 C26.7417883 25.62753452 30.14951493 29.0411241 33.55668139 32.45528746 C37.12364211 36.0285165 40.69345133 39.59889748 44.26295471 43.16958618 C51.01501362 49.92474816 57.76452022 56.68245432 64.51310545 63.44108641 C72.19916942 71.13834335 79.88808676 78.83274732 87.57724082 86.52691722 C103.38799614 102.34811373 119.19517866 118.17287582 135 134 C129.33494521 140.91174969 123.00541748 147.14286887 116.69238281 153.45288086 C115.44332853 154.70493081 114.19447838 155.95718442 112.94581604 157.20962524 C109.57047274 160.59376389 106.19192844 163.97468886 102.81250477 167.3547523 C100.70160865 169.46636062 98.5914267 171.57867991 96.48149872 173.69125557 C89.12251427 181.05947339 81.76096934 188.4251217 74.39697266 195.78833008 C67.52698918 202.6577109 60.66262338 209.53267038 53.8008225 216.4102239 C47.90788428 222.31620936 42.01112601 228.21836193 36.11134028 234.11750704 C32.58787935 237.64071248 29.06600393 241.16546861 25.54795074 244.69407463 C22.24617275 248.00548805 18.93968945 251.31212765 15.6294384 254.61507034 C14.41265243 255.83080529 13.19758911 257.04826707 11.98433876 258.26753044 C10.33462955 259.92488865 8.67895322 261.57603881 7.02154541 263.22569275 C6.09464024 264.15314269 5.16773506 265.08059263 4.21274185 266.03614712 C2 268 2 268 0 268 C0 179.56 0 91.12 0 0 Z " fill="#F77C04" transform="translate(472,645)"/>
</svg>
